<?xml version="1.0"?>
<svg xmlns="http://www.w3.org/2000/svg" xmlns:xlink="http://www.w3.org/1999/xlink" version="1.1" id="Capa_1" x="0px" y="0px" width="512px" height="512px" viewBox="0 0 410.916 410.916" style="enable-background:new 0 0 410.916 410.916;" xml:space="preserve" class=""><g transform="matrix(0.851458, 0, 0, 0.851458, 30.5192, 30.5192)"><g>
	<path d="M410.916,375.424v22.413H0V13.079h22.413v362.35h388.502V375.424z M308.185,38.854H52.301V64.07h255.884V38.854z    M226.004,84.986H89.66v25.215h136.345V84.986z M205.458,148.024h136.344v-25.215H205.458V148.024z M210.125,202.476H73.78v25.216   h136.345V202.476z M210.125,271.121v-25.214h-82.178v25.214H210.125z M296.045,303.338V278.12H216.66v25.218H296.045z    M302.109,335.089h79.387v-25.214h-79.387V335.089z" data-original="#000000" class="active-path" data-old_color="#9A2401" fill="#9C2400"/>
</g></g> </svg>
