<?xml version="1.0" encoding="iso-8859-1"?>
<!-- Generator: Adobe Illustrator 19.0.0, SVG Export Plug-In . SVG Version: 6.00 Build 0)  -->
<svg version="1.1" id="Capa_1" xmlns="http://www.w3.org/2000/svg" xmlns:xlink="http://www.w3.org/1999/xlink" x="0px" y="0px"
	 viewBox="0 0 398.652 398.652" style="enable-background:new 0 0 398.652 398.652;" xml:space="preserve">
<path style="fill:#1185E0;" d="M340.714,398.652c-14.106,0-28.212-5.224-39.184-15.673L138.004,219.452
	c-7.837,2.09-16.196,2.612-24.555,2.612c-29.257,0-57.992-12.016-78.367-32.914S3.212,139.518,3.212,110.783
	c0-13.061,2.612-26.122,8.882-40.751c2.09-4.702,6.269-8.359,11.494-9.404c5.224-1.045,10.449,0.522,14.106,4.18l36.571,37.094
	l22.988-7.837l8.359-25.078L69.04,32.938c-3.657-3.657-5.224-9.404-4.18-14.106c1.045-5.224,4.702-9.404,9.927-11.494
	c40.751-15.673,86.204-5.747,116.506,25.078l0,0c20.376,20.898,31.869,49.633,31.869,78.367c0,10.971-1.567,22.465-4.702,32.914
	l160.914,160.914c21.42,20.898,21.42,55.902,0,77.845C368.926,392.905,354.82,398.652,340.714,398.652z M142.706,186.015
	c4.18,0,7.837,1.567,10.971,4.702l169.796,169.796c9.404,8.882,24.555,8.882,33.959,0c8.882-9.404,9.404-24.555,0-33.959
	L189.726,158.848c-4.702-4.702-5.747-10.971-3.657-17.241c4.18-9.927,6.269-20.898,6.269-31.347
	c0-20.898-8.359-41.273-22.988-56.424c-15.151-15.673-36.049-23.51-56.947-22.988l22.465,22.465
	c4.18,4.18,5.747,10.449,3.657,16.196l-14.106,41.796c-1.567,4.702-5.224,8.359-9.927,9.927l-39.706,13.584
	c-5.747,2.09-12.016,0.522-16.196-3.657l-24.033-24.555c0,1.567,0,3.135,0,4.18c0,20.898,8.359,41.273,23.51,56.424
	c14.629,15.151,35.004,23.51,55.38,23.51c8.359,0,16.718-1.567,24.555-3.657C139.571,186.538,141.138,186.015,142.706,186.015z"/>
<g>
</g>
<g>
</g>
<g>
</g>
<g>
</g>
<g>
</g>
<g>
</g>
<g>
</g>
<g>
</g>
<g>
</g>
<g>
</g>
<g>
</g>
<g>
</g>
<g>
</g>
<g>
</g>
<g>
</g>
</svg>
