<?xml version="1.0" encoding="iso-8859-1"?>
<!-- Generator: Adobe Illustrator 19.0.0, SVG Export Plug-In . SVG Version: 6.00 Build 0)  -->
<svg version="1.1" id="Capa_1" xmlns="http://www.w3.org/2000/svg" xmlns:xlink="http://www.w3.org/1999/xlink" x="0px" y="0px"
	 viewBox="0 0 480 480" style="enable-background:new 0 0 480 480;" xml:space="preserve">
<g>
	
		<linearGradient id="SVGID_1_" gradientUnits="userSpaceOnUse" x1="-26.875" y1="555.755" x2="-26.875" y2="616.575" gradientTransform="matrix(8 0 0 -8 455 4941)">
		<stop  offset="0" style="stop-color:#006DF0"/>
		<stop  offset="1" style="stop-color:#00E7F0"/>
	</linearGradient>
	<path style="fill:url(#SVGID_1_);" d="M240,112c30.928,0,56-25.072,56-56S270.928,0,240,0s-56,25.072-56,56
		C184.035,86.913,209.087,111.965,240,112z M240,16c22.091,0,40,17.909,40,40s-17.909,40-40,40s-40-17.909-40-40
		C200.026,33.92,217.92,16.026,240,16z"/>
	
		<linearGradient id="SVGID_2_" gradientUnits="userSpaceOnUse" x1="-26.875" y1="555.755" x2="-26.875" y2="616.575" gradientTransform="matrix(8 0 0 -8 455 4941)">
		<stop  offset="0" style="stop-color:#006DF0"/>
		<stop  offset="1" style="stop-color:#00E7F0"/>
	</linearGradient>
	<path style="fill:url(#SVGID_2_);" d="M336,328V192c-0.044-39.746-32.254-71.956-72-72h-48c-39.746,0.044-71.956,32.254-72,72v136
		h32v152h16V296h-16v16h-16V192c0.035-30.913,25.087-55.965,56-56h48c30.913,0.035,55.965,25.087,56,56v120h-16v-16h-16v184h16V328
		H336z"/>
	
		<linearGradient id="SVGID_3_" gradientUnits="userSpaceOnUse" x1="-26.875" y1="555.755" x2="-26.875" y2="616.575" gradientTransform="matrix(8 0 0 -8 455 4941)">
		<stop  offset="0" style="stop-color:#006DF0"/>
		<stop  offset="1" style="stop-color:#00E7F0"/>
	</linearGradient>
	<path style="fill:url(#SVGID_3_);" d="M232,328h16v152h-16V328z"/>
</g>
<g>
	
		<linearGradient id="SVGID_4_" gradientUnits="userSpaceOnUse" x1="-6.875" y1="555.755" x2="-6.875" y2="616.575" gradientTransform="matrix(8 0 0 -8 455 4941)">
		<stop  offset="0" style="stop-color:#006DF0"/>
		<stop  offset="1" style="stop-color:#00E7F0"/>
	</linearGradient>
	<path style="fill:url(#SVGID_4_);" d="M400,176c26.51,0,48-21.49,48-48s-21.49-48-48-48s-48,21.49-48,48
		C352.026,154.499,373.501,175.974,400,176z M400,96c17.673,0,32,14.327,32,32s-14.327,32-32,32s-32-14.327-32-32S382.327,96,400,96
		z"/>
	
		<linearGradient id="SVGID_5_" gradientUnits="userSpaceOnUse" x1="-4.875" y1="555.755" x2="-4.875" y2="616.575" gradientTransform="matrix(8 0 0 -8 455 4941)">
		<stop  offset="0" style="stop-color:#006DF0"/>
		<stop  offset="1" style="stop-color:#00E7F0"/>
	</linearGradient>
	<path style="fill:url(#SVGID_5_);" d="M480,240c-0.035-30.913-25.087-55.965-56-56h-72v16h72c22.08,0.026,39.974,17.92,40,40v104
		h-16v-16h-16v152h16V360h32V240z"/>
	
		<linearGradient id="SVGID_6_" gradientUnits="userSpaceOnUse" x1="-13.875" y1="555.755" x2="-13.875" y2="616.575" gradientTransform="matrix(8 0 0 -8 455 4941)">
		<stop  offset="0" style="stop-color:#006DF0"/>
		<stop  offset="1" style="stop-color:#00E7F0"/>
	</linearGradient>
	<path style="fill:url(#SVGID_6_);" d="M352,344h-32v16h32v120h16V328h-16V344z"/>
	
		<linearGradient id="SVGID_7_" gradientUnits="userSpaceOnUse" x1="-6.875" y1="555.755" x2="-6.875" y2="616.575" gradientTransform="matrix(8 0 0 -8 455 4941)">
		<stop  offset="0" style="stop-color:#006DF0"/>
		<stop  offset="1" style="stop-color:#00E7F0"/>
	</linearGradient>
	<path style="fill:url(#SVGID_7_);" d="M392,360h16v120h-16V360z"/>
	
		<linearGradient id="SVGID_8_" gradientUnits="userSpaceOnUse" x1="-46.875" y1="555.755" x2="-46.875" y2="616.575" gradientTransform="matrix(8 0 0 -8 455 4941)">
		<stop  offset="0" style="stop-color:#006DF0"/>
		<stop  offset="1" style="stop-color:#00E7F0"/>
	</linearGradient>
	<path style="fill:url(#SVGID_8_);" d="M80,176c26.51,0,48-21.49,48-48s-21.49-48-48-48s-48,21.49-48,48
		C32.026,154.499,53.501,175.974,80,176z M80,96c17.673,0,32,14.327,32,32s-14.327,32-32,32s-32-14.327-32-32S62.327,96,80,96z"/>
	
		<linearGradient id="SVGID_9_" gradientUnits="userSpaceOnUse" x1="-48.875" y1="555.755" x2="-48.875" y2="616.575" gradientTransform="matrix(8 0 0 -8 455 4941)">
		<stop  offset="0" style="stop-color:#006DF0"/>
		<stop  offset="1" style="stop-color:#00E7F0"/>
	</linearGradient>
	<path style="fill:url(#SVGID_9_);" d="M56,200h72v-16H56c-30.913,0.035-55.965,25.087-56,56v120h32v120h16V328H32v16H16V240
		C16.026,217.92,33.92,200.026,56,200z"/>
	
		<linearGradient id="SVGID_10_" gradientUnits="userSpaceOnUse" x1="-39.875" y1="555.755" x2="-39.875" y2="616.575" gradientTransform="matrix(8 0 0 -8 455 4941)">
		<stop  offset="0" style="stop-color:#006DF0"/>
		<stop  offset="1" style="stop-color:#00E7F0"/>
	</linearGradient>
	<path style="fill:url(#SVGID_10_);" d="M128,328h-16v152h16V360h32v-16h-32V328z"/>
	
		<linearGradient id="SVGID_11_" gradientUnits="userSpaceOnUse" x1="-46.875" y1="555.755" x2="-46.875" y2="616.575" gradientTransform="matrix(8 0 0 -8 455 4941)">
		<stop  offset="0" style="stop-color:#006DF0"/>
		<stop  offset="1" style="stop-color:#00E7F0"/>
	</linearGradient>
	<path style="fill:url(#SVGID_11_);" d="M72,360h16v120H72V360z"/>
</g>
<g>
</g>
<g>
</g>
<g>
</g>
<g>
</g>
<g>
</g>
<g>
</g>
<g>
</g>
<g>
</g>
<g>
</g>
<g>
</g>
<g>
</g>
<g>
</g>
<g>
</g>
<g>
</g>
<g>
</g>
</svg>
