<?xml version="1.0" encoding="iso-8859-1"?>
<!-- Generator: Adobe Illustrator 19.0.0, SVG Export Plug-In . SVG Version: 6.00 Build 0)  -->
<svg version="1.1" id="Capa_1" xmlns="http://www.w3.org/2000/svg" xmlns:xlink="http://www.w3.org/1999/xlink" x="0px" y="0px"
	 viewBox="0 0 512 512" style="enable-background:new 0 0 512 512;" xml:space="preserve">
<g>
	<path style="fill:#95A5A5;" d="M503.172,97.103h-79.448l-32.486,167.724l-3.354,17.655l-17.126,88.276v132.414
		c0.014,4.869,3.958,8.813,8.828,8.828h123.586c4.869-0.014,8.813-3.958,8.828-8.828V105.931
		C511.986,101.062,508.042,97.118,503.172,97.103z"/>
	<rect x="370.759" y="441.379" style="fill:#BDC3C7;" width="141.241" height="35.31"/>
	<g>
		<path style="fill:#7F8C8D;" d="M512,476.69v26.483c-0.014,4.869-3.958,8.813-8.828,8.828H379.586
			c-4.869-0.014-8.813-3.958-8.828-8.828V476.69"/>
		<rect x="370.759" y="406.069" style="fill:#7F8C8D;" width="141.241" height="35.31"/>
	</g>
	<path style="fill:#5E5F62;" d="M467.862,273.655c-0.014,4.869-3.958,8.813-8.828,8.828h-71.15l3.354-17.655h67.796
		C463.904,264.842,467.848,268.786,467.862,273.655z"/>
	<rect x="167.724" y="353.103" style="fill:#A5A5A4;" width="88.276" height="141.241"/>
	<g>
		<path style="fill:#5E5F62;" d="M132.414,476.69H291.31c9.751,0,17.655,7.904,17.655,17.655V512H114.759v-17.655
			C114.759,484.594,122.663,476.69,132.414,476.69z"/>
		<path style="fill:#5E5F62;" d="M423.724,317.793v35.31c-0.029,9.739-7.916,17.626-17.655,17.655H17.655
			C7.916,370.73,0.029,362.842,0,353.103v-35.31H423.724z"/>
		<path style="fill:#5E5F62;" d="M423.724,88.276v35.31H0v-35.31c0.028-9.739,7.916-17.627,17.655-17.655h388.414
			C415.808,70.649,423.696,78.537,423.724,88.276z"/>
	</g>
	<rect y="105.931" style="fill:#67B9CC;" width="423.724" height="229.517"/>
	<path style="fill:#E64C3C;" d="M423.724,224.75c14.838,8.607,33.716,5.305,44.752-7.828c11.035-13.133,11.035-32.298,0-45.431
		c-11.035-13.133-29.913-16.435-44.752-7.828V224.75z"/>
	<g>
		<path style="fill:#B0D3F0;" d="M35.31,203.034c-3.57-0.001-6.788-2.152-8.154-5.45c-1.366-3.298-0.611-7.094,1.913-9.619
			l26.483-26.483c3.456-3.394,9.001-3.369,12.426,0.056c3.425,3.425,3.45,8.97,0.056,12.426l-26.483,26.483
			C39.898,202.106,37.652,203.037,35.31,203.034z"/>
		<path style="fill:#B0D3F0;" d="M88.276,150.069c-2.348,0.022-4.606-0.901-6.268-2.56c-0.78-0.859-1.408-1.844-1.858-2.914
			c-0.937-2.137-0.937-4.569,0-6.707c0.448-1.071,1.076-2.056,1.858-2.915c0.878-0.777,1.857-1.432,2.909-1.948
			c1.63-0.63,3.407-0.783,5.121-0.44c0.54,0.11,1.071,0.257,1.59,0.44c0.548,0.263,1.079,0.559,1.591,0.888
			c0.461,0.328,0.903,0.682,1.324,1.06c0.797,0.845,1.426,1.834,1.854,2.914c0.452,1.061,0.692,2.2,0.706,3.354
			c0.03,1.158-0.212,2.306-0.707,3.353c-0.45,1.068-1.077,2.053-1.854,2.914c-0.859,0.779-1.844,1.406-2.914,1.854
			C90.568,149.815,89.429,150.055,88.276,150.069z"/>
		<path style="fill:#B0D3F0;" d="M44.138,247.172c-3.57-0.001-6.788-2.152-8.154-5.45c-1.366-3.298-0.611-7.094,1.913-9.619L135,135
			c3.456-3.394,9.001-3.369,12.426,0.056s3.45,8.97,0.056,12.426l-97.103,97.103C48.726,246.244,46.48,247.175,44.138,247.172z"/>
	</g>
	<circle style="fill:#D1D4D1;" cx="211.862" cy="35.31" r="35.31"/>
	<path style="fill:#E64C3C;" d="M211.862,44.138c-2.348,0.023-4.607-0.9-6.267-2.56c-1.66-1.66-2.583-3.919-2.56-6.267
		c0.033-2.337,0.947-4.576,2.56-6.268c0.857-0.779,1.841-1.406,2.909-1.854c3.289-1.379,7.084-0.648,9.626,1.854
		c1.611,1.693,2.525,3.931,2.56,6.268c0.023,2.348-0.9,4.607-2.56,6.267C216.469,43.238,214.21,44.161,211.862,44.138z"/>
	<rect x="176.552" y="70.621" style="fill:#A5A5A4;" width="70.621" height="35.31"/>
</g>
<g>
</g>
<g>
</g>
<g>
</g>
<g>
</g>
<g>
</g>
<g>
</g>
<g>
</g>
<g>
</g>
<g>
</g>
<g>
</g>
<g>
</g>
<g>
</g>
<g>
</g>
<g>
</g>
<g>
</g>
</svg>
