<?xml version="1.0" encoding="iso-8859-1"?>
<!-- Generator: Adobe Illustrator 19.0.0, SVG Export Plug-In . SVG Version: 6.00 Build 0)  -->
<svg version="1.1" id="Capa_1" xmlns="http://www.w3.org/2000/svg" xmlns:xlink="http://www.w3.org/1999/xlink" x="0px" y="0px"
	 viewBox="0 0 512 512" style="enable-background:new 0 0 512 512;" xml:space="preserve">
<path style="fill:#4696E6;" d="M10,401.68C10,420.635,25.365,436,44.32,436h423.36c18.954,0,34.32-15.365,34.32-34.32V377H10V401.68
	z"/>
<rect x="10" y="317" style="fill:#6E6E6E;" width="492" height="60"/>
<path style="fill:#E6E6E6;" d="M467.68,76H44.32C25.365,76,10,91.365,10,110.32V317h492V110.32C502,91.365,486.635,76,467.68,76z"/>
<rect x="357" y="120" style="fill:#FA9600;" width="100" height="100"/>
<polygon style="fill:#5AD2E6;" points="80,120 80,180 280,180 280,120 83.175,120 "/>
<path d="M467.68,66H44.32C19.882,66,0,85.882,0,110.32v291.36C0,426.118,19.882,446,44.32,446h423.36
	c24.438,0,44.32-19.882,44.32-44.32V110.32C512,85.882,492.118,66,467.68,66z M20,327h472v40H20V327z M20,110.32
	C20,96.91,30.91,86,44.32,86h423.36C481.09,86,492,96.91,492,110.32V307H20V110.32z M492,401.68c0,13.41-10.91,24.32-24.32,24.32
	H44.32C30.91,426,20,415.09,20,401.68V387h472V401.68z"/>
<path d="M457,110H357c-5.523,0-10,4.478-10,10v100c0,5.522,4.477,10,10,10h100c5.523,0,10-4.478,10-10V120
	C467,114.478,462.523,110,457,110z M447,210h-80v-80h80V210z"/>
<path d="M280,110H83.175c-0.541,0-1.07,0.043-1.587,0.125C81.07,110.043,80.541,110,80,110c-5.523,0-10,4.478-10,10v60
	c0,5.522,4.477,10,10,10h200c5.523,0,10-4.478,10-10v-60C290,114.478,285.523,110,280,110z M270,170H90v-40h180V170z"/>
<path d="M280,210h-56.82c-5.52,0-10,4.49-10,10s4.48,10,10,10H280c5.51,0,10-4.49,10-10S285.51,210,280,210z"/>
<path d="M83.18,230h60c5.51,0,9.99-4.49,9.99-10s-4.48-10-9.99-10h-60c-5.52,0-10,4.49-10,10S77.66,230,83.18,230z"/>
<path d="M193.17,220c0-5.51-4.48-10-10-10c-5.51,0-10,4.49-10,10s4.49,10,10,10C188.69,230,193.17,225.51,193.17,220z"/>
<path d="M239.17,250h-156c-5.51,0-9.99,4.479-9.99,10c0,5.51,4.48,10,9.99,10h156c5.52,0,10-4.49,10-10
	C249.17,254.479,244.69,250,239.17,250z"/>
<path d="M279.17,250c-5.51,0-10,4.479-10,10c0,5.51,4.49,10,10,10c5.52,0,10-4.49,10-10C289.17,254.479,284.69,250,279.17,250z"/>
<g>
</g>
<g>
</g>
<g>
</g>
<g>
</g>
<g>
</g>
<g>
</g>
<g>
</g>
<g>
</g>
<g>
</g>
<g>
</g>
<g>
</g>
<g>
</g>
<g>
</g>
<g>
</g>
<g>
</g>
</svg>
