<?xml version="1.0" encoding="iso-8859-1"?>
<!-- Generator: Adobe Illustrator 19.0.0, SVG Export Plug-In . SVG Version: 6.00 Build 0)  -->
<svg version="1.1" id="Capa_1" xmlns="http://www.w3.org/2000/svg" xmlns:xlink="http://www.w3.org/1999/xlink" x="0px" y="0px"
	 viewBox="0 0 469.333 469.333" style="enable-background:new 0 0 469.333 469.333;" xml:space="preserve">
<path style="fill:#303C42;" d="M466.208,451.125L316.681,301.587c28.503-32.043,45.986-74.095,45.986-120.254
	C362.667,81.344,281.313,0,181.333,0S0,81.344,0,181.333s81.354,181.333,181.333,181.333c46.161,0,88.22-17.486,120.266-45.995
	l149.526,149.536c2.083,2.083,4.813,3.125,7.542,3.125c2.729,0,5.458-1.042,7.542-3.125
	C470.375,462.042,470.375,455.292,466.208,451.125z"/>
<circle style="fill:#BBDEFB;" cx="181.333" cy="181.333" r="160"/>
<path style="opacity:0.1;enable-background:new    ;" d="M42.667,202.667c0-88.229,71.771-160,160-160
	c38.694,0,74.215,13.813,101.911,36.755c-29.371-35.458-73.71-58.089-123.245-58.089c-88.229,0-160,71.771-160,160
	c0,49.535,22.63,93.874,58.089,123.245C56.479,276.882,42.667,241.361,42.667,202.667z"/>
<circle style="opacity:0.4;fill:#FFFFFF;enable-background:new    ;" cx="224" cy="245.333" r="53.333"/>
<g>
	<path style="fill:#303C42;" d="M136.302,121.167c-3.771-4.51-10.5-5.135-15.031-1.365l-64,53.333
		c-2.427,2.031-3.833,5.031-3.833,8.198c0,3.167,1.406,6.167,3.833,8.198l64,53.333c2,1.656,4.417,2.469,6.823,2.469
		c3.063,0,6.094-1.302,8.208-3.833c3.771-4.531,3.156-11.26-1.365-15.031l-54.167-45.135l54.167-45.135
		C139.458,132.427,140.073,125.698,136.302,121.167z"/>
	<path style="fill:#303C42;" d="M305.604,173.135l-64-53.333c-4.552-3.771-11.271-3.146-15.031,1.365
		c-3.771,4.531-3.156,11.26,1.365,15.031l54.167,45.135l-54.167,45.135c-4.521,3.771-5.135,10.5-1.365,15.031
		c2.115,2.531,5.146,3.833,8.208,3.833c2.406,0,4.823-0.813,6.823-2.469l64-53.333c2.427-2.031,3.833-5.031,3.833-8.198
		C309.438,178.167,308.031,175.167,305.604,173.135z"/>
	<path style="fill:#303C42;" d="M217.635,96.865c-5.375-2.354-11.688,0.167-14,5.604l-64,149.333
		c-2.323,5.406,0.188,11.677,5.604,14c1.365,0.594,2.792,0.865,4.198,0.865c4.135,0,8.073-2.417,9.802-6.469l64-149.333
		C225.563,105.458,223.052,99.188,217.635,96.865z"/>
</g>
<linearGradient id="SVGID_1_" gradientUnits="userSpaceOnUse" x1="-66.24" y1="619.2424" x2="-42.4256" y2="608.1403" gradientTransform="matrix(21.3333 0 0 -21.3333 1430.1112 13315.2227)">
	<stop  offset="0" style="stop-color:#FFFFFF;stop-opacity:0.2"/>
	<stop  offset="1" style="stop-color:#FFFFFF;stop-opacity:0"/>
</linearGradient>
<path style="fill:url(#SVGID_1_);" d="M466.208,451.125L316.681,301.587c28.503-32.043,45.986-74.095,45.986-120.254
	C362.667,81.344,281.313,0,181.333,0S0,81.344,0,181.333s81.354,181.333,181.333,181.333c46.161,0,88.22-17.486,120.266-45.995
	l149.526,149.536c2.083,2.083,4.813,3.125,7.542,3.125c2.729,0,5.458-1.042,7.542-3.125
	C470.375,462.042,470.375,455.292,466.208,451.125z"/>
<g>
</g>
<g>
</g>
<g>
</g>
<g>
</g>
<g>
</g>
<g>
</g>
<g>
</g>
<g>
</g>
<g>
</g>
<g>
</g>
<g>
</g>
<g>
</g>
<g>
</g>
<g>
</g>
<g>
</g>
</svg>
