<?xml version="1.0" encoding="iso-8859-1"?>
<!-- Generator: Adobe Illustrator 19.0.0, SVG Export Plug-In . SVG Version: 6.00 Build 0)  -->
<svg version="1.1" id="Layer_1" xmlns="http://www.w3.org/2000/svg" xmlns:xlink="http://www.w3.org/1999/xlink" x="0px" y="0px"
	 viewBox="0 0 512 512" style="enable-background:new 0 0 512 512;" xml:space="preserve">
<path style="fill:#314E55;" d="M9.66,212.529h299.472v48.302c0,3.42,1.806,6.585,4.75,8.321c1.514,0.891,3.212,1.34,4.91,1.34
	c1.608,0,3.217-0.401,4.674-1.208L507.014,167.85c3.075-1.698,4.986-4.939,4.986-8.453s-1.91-6.755-4.986-8.453L323.467,49.51
	c-3-1.66-6.637-1.604-9.585,0.132c-2.943,1.736-4.75,4.901-4.75,8.321v48.302H9.66c-5.335,0-9.66,4.325-9.66,9.66v86.943
	C0,208.203,4.325,212.529,9.66,212.529z"/>
<path style="fill:#EA86A5;" d="M19.321,125.585h299.472c5.335,0,9.66-4.325,9.66-9.66V74.34l153.915,85.057l-153.915,85.056v-41.585
	c0-5.335-4.325-9.66-9.66-9.66H19.321V125.585z"/>
<path style="fill:#314E55;" d="M502.34,299.472H202.868V251.17c0-3.42-1.806-6.585-4.75-8.321c-2.948-1.731-6.59-1.792-9.585-0.132
	L4.986,344.151C1.91,345.85,0,349.09,0,352.604s1.91,6.755,4.986,8.453l183.547,101.434c1.458,0.807,3.066,1.208,4.674,1.208
	c1.698,0,3.396-0.448,4.91-1.34c2.944-1.736,4.75-4.901,4.75-8.321v-48.302H502.34c5.335,0,9.66-4.325,9.66-9.66v-86.943
	C512,303.798,507.675,299.472,502.34,299.472z"/>
<path style="fill:#73C9C9;" d="M492.679,386.416H193.208c-5.335,0-9.66,4.325-9.66,9.66v41.585L29.632,352.604l153.915-85.056
	v41.585c0,5.335,4.325,9.66,9.66,9.66h299.472V386.416z"/>
<g>
</g>
<g>
</g>
<g>
</g>
<g>
</g>
<g>
</g>
<g>
</g>
<g>
</g>
<g>
</g>
<g>
</g>
<g>
</g>
<g>
</g>
<g>
</g>
<g>
</g>
<g>
</g>
<g>
</g>
</svg>
